<svg width="22" height="18" viewBox="0 0 22 18" fill="none" xmlns="http://www.w3.org/2000/svg">
<path d="M18.5 18C19.2956 18 20.0587 17.6839 20.6213 17.1213C21.1839 16.5587 21.5 15.7956 21.5 15V10.5C21.5 9.70435 21.1839 8.94129 20.6213 8.37868C20.0587 7.81607 19.2956 7.5 18.5 7.5H3.5C2.70435 7.5 1.94129 7.81607 1.37868 8.37868C0.816071 8.94129 0.5 9.70435 0.5 10.5V15C0.5 15.7956 0.816071 16.5587 1.37868 17.1213C1.94129 17.6839 2.70435 18 3.5 18H18.5ZM0.5 7.146V3C0.5 2.20435 0.816071 1.44129 1.37868 0.87868C1.94129 0.316071 2.70435 0 3.5 0H8.879C9.47539 0.000259955 10.0473 0.237289 10.469 0.659L12.591 2.78C12.731 2.921 12.922 3 13.121 3H18.5C19.2956 3 20.0587 3.31607 20.6213 3.87868C21.1839 4.44129 21.5 5.20435 21.5 6V7.146C20.6758 6.40664 19.6072 5.99842 18.5 6H3.5C2.39279 5.99842 1.32417 6.40664 0.5 7.146Z" fill="white"/>
</svg>
